<svg width="346" height="130" viewBox="0 0 346 130" fill="none" xmlns="http://www.w3.org/2000/svg">
<g clip-path="url(#clip0_853_9291)">
<path d="M0 15C0 6.71573 6.71573 0 15 0H331C339.284 0 346 6.71573 346 15V130H0V15Z" fill="#1D8CF8"/>
<circle cx="311" r="16" fill="#4FA5FA"/>
<circle cx="313.5" cy="56.5" r="2.5" fill="#53A7FA"/>
<circle cx="253.5" cy="21.5" r="2.5" fill="#53A7FA"/>
<circle cx="244" cy="135" r="16" fill="#4FA5FA"/>
<circle cx="0.5" cy="44.5" r="14.5" fill="#4FA5FA"/>
<circle cx="291.786" cy="36.2143" r="2.21429" fill="#53A7FA"/>
<circle cx="291.786" cy="42.8569" r="2.21429" fill="#53A7FA"/>
<circle cx="291.786" cy="49.4994" r="2.21429" fill="#53A7FA"/>
<circle cx="291.786" cy="56.143" r="2.21429" fill="#53A7FA"/>
<circle cx="291.786" cy="62.7856" r="2.21429" fill="#53A7FA"/>
<circle cx="285.143" cy="36.2143" r="2.21429" fill="#53A7FA"/>
<circle cx="285.143" cy="42.8569" r="2.21429" fill="#53A7FA"/>
<circle cx="285.143" cy="49.4994" r="2.21429" fill="#53A7FA"/>
<circle cx="285.143" cy="56.143" r="2.21429" fill="#53A7FA"/>
<circle cx="285.143" cy="62.7856" r="2.21429" fill="#53A7FA"/>
<circle cx="278.5" cy="36.2143" r="2.21429" fill="#53A7FA"/>
<circle cx="278.5" cy="42.8569" r="2.21429" fill="#53A7FA"/>
<circle cx="278.5" cy="49.4994" r="2.21429" fill="#53A7FA"/>
<circle cx="278.5" cy="56.143" r="2.21429" fill="#53A7FA"/>
<circle cx="278.5" cy="62.7856" r="2.21429" fill="#53A7FA"/>
<circle cx="271.857" cy="36.2143" r="2.21429" fill="#53A7FA"/>
<circle cx="271.857" cy="42.8569" r="2.21429" fill="#53A7FA"/>
<circle cx="271.857" cy="49.4994" r="2.21429" fill="#53A7FA"/>
<circle cx="271.857" cy="56.143" r="2.21429" fill="#53A7FA"/>
<circle cx="271.857" cy="62.7856" r="2.21429" fill="#53A7FA"/>
<circle cx="265.214" cy="36.2143" r="2.21429" fill="#53A7FA"/>
<circle cx="265.214" cy="42.8569" r="2.21429" fill="#53A7FA"/>
<circle cx="265.214" cy="49.4994" r="2.21429" fill="#53A7FA"/>
<circle cx="265.214" cy="56.143" r="2.21429" fill="#53A7FA"/>
<circle cx="265.214" cy="62.7856" r="2.21429" fill="#53A7FA"/>
</g>
<defs>
<clipPath id="clip0_853_9291">
<rect width="346" height="130" fill="white"/>
</clipPath>
</defs>
</svg>
