<?xml version="1.0" encoding="UTF-8"?>
<svg xmlns="http://www.w3.org/2000/svg" xmlns:xlink="http://www.w3.org/1999/xlink" width="86px" height="20px" viewBox="0 0 86 20" version="1.1">
<g id="surface1">
<path style=" stroke:none;fill-rule:nonzero;fill:rgb(100%,100%,100%);fill-opacity:1;" d="M 23.25 1.878906 C 23.609375 1.878906 23.902344 1.570312 23.902344 1.21875 C 23.902344 0.871094 23.609375 0.566406 23.25 0.566406 C 22.882812 0.566406 22.589844 0.871094 22.589844 1.21875 C 22.589844 1.570312 22.882812 1.878906 23.25 1.878906 Z M 22.664062 7.5 L 23.816406 7.5 L 23.816406 2.617188 L 22.664062 2.617188 Z M 25.210938 7.5 L 26.394531 7.5 L 26.394531 3.164062 L 28.527344 7.121094 L 30.671875 3.164062 L 30.671875 7.5 L 31.839844 7.5 L 31.839844 1.011719 L 30.671875 1.011719 L 28.527344 4.96875 L 26.394531 1.011719 L 25.210938 1.011719 Z M 35.675781 7.605469 C 37.226562 7.605469 38.113281 6.78125 38.113281 5.621094 C 38.113281 4.441406 37.207031 4.003906 35.855469 3.703125 C 34.828125 3.46875 34.347656 3.277344 34.347656 2.75 C 34.347656 2.296875 34.789062 1.898438 35.441406 1.898438 C 36.082031 1.898438 36.734375 2.171875 37.300781 2.664062 L 37.945312 1.796875 C 37.292969 1.238281 36.519531 0.890625 35.488281 0.890625 C 34.121094 0.890625 33.15625 1.71875 33.15625 2.851562 C 33.15625 4.070312 34.089844 4.457031 35.433594 4.769531 C 36.472656 5.015625 36.933594 5.195312 36.933594 5.734375 C 36.933594 6.195312 36.519531 6.59375 35.714844 6.59375 C 34.867188 6.59375 34.175781 6.253906 33.582031 5.714844 L 32.902344 6.554688 C 33.621094 7.226562 34.5625 7.605469 35.675781 7.605469 Z M 24.449219 16.945312 L 25.621094 16.945312 L 25.621094 11.53125 L 27.699219 11.53125 L 27.699219 10.457031 L 22.371094 10.457031 L 22.371094 11.53125 L 24.449219 11.53125 Z M 30.945312 16.039062 C 30.246094 16.039062 29.734375 15.566406 29.59375 14.894531 L 33.277344 14.894531 C 33.277344 13.089844 32.398438 11.949219 30.886719 11.949219 C 29.5 11.949219 28.402344 13.023438 28.402344 14.488281 C 28.402344 15.992188 29.554688 17.058594 30.953125 17.058594 C 31.660156 17.058594 32.511719 16.753906 32.9375 16.300781 L 32.207031 15.546875 C 31.933594 15.828125 31.398438 16.039062 30.945312 16.039062 Z M 30.933594 12.96875 C 31.625 12.96875 32.039062 13.402344 32.171875 14.015625 L 29.601562 14.015625 C 29.773438 13.375 30.292969 12.96875 30.933594 12.96875 Z M 36.625 17.058594 C 37.398438 17.058594 38.050781 16.738281 38.523438 16.234375 L 37.75 15.566406 C 37.476562 15.878906 37.058594 16.074219 36.636719 16.074219 C 35.832031 16.074219 35.160156 15.359375 35.160156 14.5 C 35.160156 13.648438 35.832031 12.929688 36.636719 12.929688 C 37.050781 12.929688 37.457031 13.128906 37.722656 13.421875 L 38.496094 12.742188 C 38.03125 12.261719 37.378906 11.949219 36.644531 11.949219 C 35.21875 11.949219 34.019531 13.109375 34.019531 14.5 C 34.019531 15.886719 35.21875 17.058594 36.625 17.058594 Z M 42.089844 11.949219 C 41.441406 11.949219 40.863281 12.261719 40.570312 12.730469 L 40.570312 10.34375 L 39.417969 10.34375 L 39.417969 16.945312 L 40.570312 16.945312 L 40.570312 13.988281 C 40.570312 13.402344 41.109375 12.929688 41.761719 12.929688 C 42.367188 12.929688 42.789062 13.402344 42.789062 14.0625 L 42.789062 16.945312 L 43.90625 16.945312 L 43.90625 13.835938 C 43.90625 12.730469 43.160156 11.949219 42.089844 11.949219 Z M 47.816406 11.949219 C 47.175781 11.949219 46.609375 12.261719 46.308594 12.714844 L 46.308594 12.0625 L 45.15625 12.0625 L 45.15625 16.945312 L 46.308594 16.945312 L 46.308594 13.855469 C 46.382812 13.335938 46.882812 12.929688 47.488281 12.929688 C 48.089844 12.929688 48.515625 13.402344 48.515625 14.0625 L 48.515625 16.945312 L 49.632812 16.945312 L 49.632812 13.835938 C 49.632812 12.730469 48.886719 11.949219 47.816406 11.949219 Z M 53.242188 17.058594 C 54.660156 17.058594 55.859375 15.886719 55.859375 14.5 C 55.859375 13.109375 54.660156 11.949219 53.242188 11.949219 C 51.824219 11.949219 50.625 13.109375 50.625 14.5 C 50.625 15.886719 51.824219 17.058594 53.242188 17.058594 Z M 53.242188 16.074219 C 52.429688 16.074219 51.75 15.359375 51.75 14.5 C 51.75 13.648438 52.429688 12.929688 53.242188 12.929688 C 54.042969 12.929688 54.722656 13.648438 54.722656 14.5 C 54.722656 15.359375 54.042969 16.074219 53.242188 16.074219 Z M 56.855469 16.945312 L 58.007812 16.945312 L 58.007812 10.34375 L 56.855469 10.34375 Z M 61.640625 17.058594 C 63.058594 17.058594 64.257812 15.886719 64.257812 14.5 C 64.257812 13.109375 63.058594 11.949219 61.640625 11.949219 C 60.226562 11.949219 59.027344 13.109375 59.027344 14.5 C 59.027344 15.886719 60.226562 17.058594 61.640625 17.058594 Z M 61.640625 16.074219 C 60.832031 16.074219 60.152344 15.359375 60.152344 14.5 C 60.152344 13.648438 60.832031 12.929688 61.640625 12.929688 C 62.445312 12.929688 63.125 13.648438 63.125 14.5 C 63.125 15.359375 62.445312 16.074219 61.640625 16.074219 Z M 68.890625 12.0625 L 68.890625 12.789062 C 68.542969 12.269531 67.910156 11.949219 67.222656 11.949219 C 65.957031 11.949219 65.019531 12.902344 65.019531 14.261719 C 65.019531 15.621094 65.957031 16.585938 67.222656 16.585938 C 67.921875 16.585938 68.503906 16.273438 68.890625 15.753906 L 68.890625 16.386719 C 68.890625 17.125 68.289062 17.585938 67.324219 17.585938 C 66.75 17.585938 66.164062 17.386719 65.824219 17.078125 L 65.398438 17.917969 C 65.878906 18.296875 66.65625 18.570312 67.496094 18.570312 C 68.988281 18.570312 70.042969 17.679688 70.042969 16.425781 L 70.042969 12.0625 Z M 67.550781 15.601562 C 66.777344 15.601562 66.21875 15.046875 66.21875 14.261719 C 66.21875 13.488281 66.777344 12.929688 67.550781 12.929688 C 68.335938 12.929688 68.890625 13.488281 68.890625 14.261719 C 68.890625 15.046875 68.335938 15.601562 67.550781 15.601562 Z M 71.917969 11.324219 C 72.277344 11.324219 72.570312 11.011719 72.570312 10.664062 C 72.570312 10.3125 72.277344 10.011719 71.917969 10.011719 C 71.550781 10.011719 71.257812 10.3125 71.257812 10.664062 C 71.257812 11.011719 71.550781 11.324219 71.917969 11.324219 Z M 71.332031 16.945312 L 72.484375 16.945312 L 72.484375 12.0625 L 71.332031 12.0625 Z M 76.035156 16.039062 C 75.335938 16.039062 74.824219 15.566406 74.683594 14.894531 L 78.367188 14.894531 C 78.367188 13.089844 77.488281 11.949219 75.976562 11.949219 C 74.589844 11.949219 73.496094 13.023438 73.496094 14.488281 C 73.496094 15.992188 74.648438 17.058594 76.042969 17.058594 C 76.753906 17.058594 77.601562 16.753906 78.027344 16.300781 L 77.300781 15.546875 C 77.027344 15.828125 76.488281 16.039062 76.035156 16.039062 Z M 76.023438 12.96875 C 76.714844 12.96875 77.128906 13.402344 77.261719 14.015625 L 74.695312 14.015625 C 74.863281 13.375 75.382812 12.96875 76.023438 12.96875 Z M 81.167969 17.058594 C 82.3125 17.058594 83.085938 16.453125 83.085938 15.519531 C 83.085938 14.5 82.199219 14.214844 81.375 13.988281 C 80.628906 13.769531 80.375 13.675781 80.375 13.363281 C 80.375 13.089844 80.6875 12.929688 81.09375 12.929688 C 81.519531 12.929688 82.019531 13.082031 82.480469 13.375 L 82.964844 12.535156 C 82.433594 12.183594 81.765625 11.949219 81.09375 11.949219 C 80.007812 11.949219 79.253906 12.570312 79.253906 13.488281 C 79.261719 14.355469 79.933594 14.660156 80.988281 14.933594 C 81.546875 15.082031 81.972656 15.207031 81.972656 15.585938 C 81.972656 15.886719 81.652344 16.085938 81.1875 16.085938 C 80.574219 16.085938 80.027344 15.859375 79.554688 15.519531 L 79.035156 16.320312 C 79.621094 16.792969 80.421875 17.058594 81.167969 17.058594 Z M 81.167969 17.058594 "/>
<path style=" stroke:none;fill-rule:nonzero;fill:rgb(100%,100%,100%);fill-opacity:1;" d="M 9.0625 1.609375 C 9.761719 1.558594 10.472656 1.601562 11.171875 1.742188 L 3.699219 14.6875 C 3.226562 14.152344 2.835938 13.558594 2.53125 12.929688 Z M 9.0625 1.609375 "/>
<path style=" stroke:none;fill-rule:nonzero;fill:rgb(100%,100%,100%);fill-opacity:1;" d="M 5.089844 4.289062 C 4.265625 4.816406 4.679688 5.417969 4.15625 6.324219 C 3.273438 7.851562 3.105469 9.59375 3.542969 11.171875 L 2.53125 12.929688 C 1.425781 10.652344 1.433594 7.890625 2.792969 5.535156 C 3.304688 4.644531 3.722656 4.480469 4.480469 3.882812 Z M 5.089844 4.289062 "/>
<path style=" stroke:none;fill-rule:nonzero;fill:rgb(100%,100%,100%);fill-opacity:1;" d="M 5.15625 3.550781 C 5.640625 3.828125 5.660156 4.53125 5.257812 4.917969 C 4.835938 5.320312 4.464844 5.792969 4.15625 6.324219 C 3.339844 7.734375 3.132812 9.332031 3.453125 10.8125 C 3.503906 11.042969 3.476562 11.285156 3.359375 11.492188 C 3.007812 12.101562 2.136719 12.054688 1.964844 11.371094 C 1.492188 9.460938 1.730469 7.371094 2.792969 5.535156 C 3.214844 4.800781 3.738281 4.160156 4.332031 3.621094 C 4.558594 3.417969 4.894531 3.394531 5.15625 3.550781 Z M 5.15625 3.550781 "/>
<path style=" stroke:none;fill-rule:nonzero;fill:rgb(100%,100%,100%);fill-opacity:1;" d="M 16.707031 6.011719 L 10.171875 17.332031 C 9.472656 17.378906 8.765625 17.335938 8.066406 17.195312 L 15.539062 4.25 C 16.007812 4.789062 16.402344 5.378906 16.707031 6.011719 Z M 16.707031 6.011719 "/>
<path style=" stroke:none;fill-rule:nonzero;fill:rgb(100%,100%,100%);fill-opacity:1;" d="M 13.558594 2.632812 C 13.105469 2.371094 12.527344 2.527344 12.265625 2.980469 L 4.882812 15.769531 C 5.132812 15.957031 5.398438 16.132812 5.675781 16.292969 C 5.953125 16.453125 6.234375 16.59375 6.519531 16.71875 L 13.90625 3.925781 C 14.167969 3.472656 14.011719 2.894531 13.558594 2.632812 Z M 13.558594 2.632812 "/>
<path style=" stroke:none;fill-rule:nonzero;fill:rgb(100%,100%,100%);fill-opacity:1;" d="M 15.199219 1.683594 C 14.9375 2.136719 14.359375 2.292969 13.90625 2.03125 C 13.453125 1.769531 13.296875 1.191406 13.558594 0.738281 C 13.820312 0.285156 14.398438 0.128906 14.851562 0.390625 C 15.304688 0.652344 15.460938 1.230469 15.199219 1.683594 Z M 15.199219 1.683594 "/>
<path style=" stroke:none;fill-rule:nonzero;fill:rgb(100%,100%,100%);fill-opacity:1;" d="M 14.316406 14.328125 C 15.019531 13.820312 14.617188 13.414062 15.078125 12.617188 C 15.960938 11.089844 16.132812 9.34375 15.691406 7.769531 L 16.707031 6.011719 C 17.8125 8.285156 17.804688 11.050781 16.445312 13.40625 C 15.992188 14.191406 15.367188 14.476562 14.71875 15.035156 Z M 14.316406 14.328125 "/>
<path style=" stroke:none;fill-rule:nonzero;fill:rgb(100%,100%,100%);fill-opacity:1;" d="M 14.3125 15.160156 C 13.839844 14.890625 13.804688 14.214844 14.183594 13.820312 C 14.519531 13.460938 14.824219 13.0625 15.078125 12.617188 C 15.894531 11.203125 16.101562 9.605469 15.78125 8.128906 C 15.730469 7.894531 15.757812 7.652344 15.878906 7.449219 C 16.230469 6.835938 17.101562 6.882812 17.269531 7.570312 C 17.742188 9.480469 17.507812 11.566406 16.445312 13.40625 C 16.085938 14.027344 15.65625 14.582031 15.167969 15.066406 C 14.941406 15.292969 14.589844 15.320312 14.3125 15.160156 Z M 14.3125 15.160156 "/>
<path style=" stroke:none;fill-rule:nonzero;fill:rgb(100%,100%,100%);fill-opacity:1;" d="M 14.3125 15.160156 C 13.839844 14.890625 13.804688 14.214844 14.183594 13.820312 C 14.519531 13.460938 14.824219 13.0625 15.078125 12.617188 C 15.894531 11.203125 16.101562 9.605469 15.78125 8.128906 C 15.730469 7.894531 15.757812 7.652344 15.878906 7.449219 C 16.230469 6.835938 17.101562 6.882812 17.269531 7.570312 C 17.742188 9.480469 17.507812 11.566406 16.445312 13.40625 C 16.085938 14.027344 15.65625 14.582031 15.167969 15.066406 C 14.941406 15.292969 14.589844 15.320312 14.3125 15.160156 Z M 14.3125 15.160156 "/>
</g>
</svg>
