<svg width="409" height="189" viewBox="0 0 409 189" fill="none" xmlns="http://www.w3.org/2000/svg">
<path d="M139.69 15.5216C139.206 15.33 138.705 15.1856 138.193 15.0904C138.705 15.1863 139.206 15.3306 139.69 15.5216V15.5216ZM136.475 14.9699H136.63H136.475ZM136.63 14.9699C136.721 14.9699 136.816 14.9699 136.915 14.9699H137.004C137.204 14.9699 137.4 14.9889 137.594 15.0111C137.397 14.9857 137.201 14.973 137.001 14.9667C136.874 14.954 136.75 14.9572 136.63 14.9604V14.9699Z" fill="white"/>
<g filter="url(#filter0_d_596_3)">
<path d="M99.7977 34.0328H99.8199V28.6995H99.7407V28.6075C99.7407 27.5041 99.7407 16.7424 99.7407 11.9355C99.7407 9.33225 98.4121 8.32077 95.8438 8.92956C69.0505 15.2807 8.10147 29.9678 8.10147 29.9678L27.1262 28.8422C27.3421 28.8296 27.5581 28.8613 27.7612 28.9354C27.9643 29.0094 28.1501 29.1242 28.3072 29.2727C28.4643 29.4212 28.5894 29.6002 28.6748 29.7988C28.7601 29.9974 28.804 30.2114 28.8036 30.4276V142.927C28.804 143.144 28.7601 143.358 28.6745 143.557C28.5889 143.756 28.4636 143.935 28.3061 144.083C28.1487 144.232 27.9625 144.347 27.759 144.421C27.5556 144.494 27.3391 144.526 27.1231 144.513L8 143.375C8 143.375 88.5573 162.688 95.8311 164.403C98.3994 165.012 99.7248 163.997 99.7312 161.394C99.7312 159.473 99.7312 157.551 99.7312 155.626V144.592H99.8104V139.262H99.7882L99.7977 34.0328ZM90.501 151.847C90.5036 152.077 90.4562 152.304 90.3621 152.514C90.268 152.724 90.1294 152.91 89.956 153.061C89.7825 153.212 89.5784 153.323 89.3577 153.387C89.137 153.451 88.905 153.467 88.6778 153.432L35.5701 145.337C35.192 145.28 34.8474 145.088 34.5998 144.797C34.3522 144.505 34.2182 144.134 34.2225 143.752V29.5524C34.222 29.1728 34.3577 28.8056 34.605 28.5176C34.8523 28.2295 35.1948 28.0398 35.5701 27.9829L88.6778 19.9005C88.9034 19.8663 89.1337 19.8812 89.3531 19.9441C89.5724 20.0071 89.7756 20.1167 89.9487 20.2654C90.1218 20.4142 90.2608 20.5985 90.3561 20.8058C90.4514 21.0132 90.5008 21.2387 90.501 21.4669V151.847Z" fill="url(#paint0_linear_596_3)"/>
</g>
<g filter="url(#filter1_d_596_3)">
<path d="M135.143 28.595V144.732C135.143 147.979 134.249 148.73 131.021 148.34C121.528 147.196 101.257 144.773 99.8298 144.602V139.262H124.286C124.707 139.262 125.11 139.095 125.407 138.798C125.705 138.5 125.872 138.097 125.872 137.677V35.6184C125.872 35.1979 125.705 34.7946 125.407 34.4973C125.11 34.2 124.707 34.033 124.286 34.033H99.8203V28.6997C101.358 28.5158 124.759 25.7033 132.055 24.8313C133.84 24.6189 135.083 25.7445 135.143 27.5518C135.152 27.8943 135.143 28.2431 135.143 28.595Z" fill="url(#paint1_linear_596_3)"/>
</g>
<g filter="url(#filter2_d_596_3)">
<path d="M151.928 23.0618C151.95 24.0416 151.5 24.717 150.514 24.7487C149.528 24.7804 149.081 24.1558 149.014 23.1633C148.538 16.1115 144.042 11.5772 136.943 10.9114C135.992 10.8226 135.129 10.5309 135.18 9.41474C135.231 8.29862 136.09 7.98471 137.136 8.00057H137.542H137.812L138.221 8.03227C138.382 8.03227 138.538 8.06398 138.699 8.08618C138.861 8.10837 138.944 8.11789 139.064 8.14008C139.185 8.16228 139.349 8.18447 139.492 8.21301C139.568 8.21301 139.641 8.23837 139.714 8.25423L139.949 8.30496L140.339 8.39691C140.491 8.43496 140.656 8.47936 140.799 8.52375L140.913 8.55545C141.063 8.59985 141.212 8.64741 141.36 8.69814L141.699 8.81546C141.813 8.85351 141.924 8.8979 142.035 8.94229L142.225 9.04059C142.285 9.06161 142.343 9.08596 142.4 9.11352C142.577 9.18961 142.755 9.26571 142.929 9.34815C143.104 9.43059 143.215 9.48133 143.354 9.55426L143.636 9.70011L143.823 9.80475L144.099 9.96012C144.34 10.0954 144.578 10.2413 144.813 10.3977C144.892 10.4516 144.971 10.5023 145.051 10.5594C146.778 11.7338 148.258 13.2355 149.407 14.9795C149.518 15.1507 149.629 15.3251 149.724 15.4995C149.819 15.6739 149.94 15.861 150.041 16.048C150.143 16.2351 150.241 16.419 150.336 16.6061C150.431 16.7932 150.52 16.9834 150.606 17.1769C150.606 17.2149 150.641 17.2529 150.66 17.2942C150.679 17.3354 150.726 17.4495 150.758 17.5256C150.866 17.7825 150.964 18.0393 151.056 18.3025C151.113 18.461 151.167 18.6196 151.218 18.7781C151.265 18.9303 151.313 19.0952 151.357 19.241C151.424 19.4757 151.484 19.7103 151.538 19.9481C151.582 20.1384 151.624 20.3286 151.658 20.522C151.693 20.7155 151.728 20.9089 151.757 21.1023C151.785 21.2957 151.811 21.4923 151.83 21.6857C151.849 21.8791 151.865 22.0567 151.877 22.2406C151.89 22.4245 151.899 22.6465 151.906 22.8526C151.925 22.8589 151.925 22.9604 151.928 23.0618Z" fill="url(#paint2_linear_596_3)"/>
</g>
<g filter="url(#filter3_d_596_3)">
<path d="M144.978 22.9702C145.003 23.9214 144.683 24.657 143.671 24.7521C142.66 24.8473 142.2 24.1751 142.051 23.2428C141.474 19.6789 140.171 18.363 136.74 17.8905C135.811 17.7605 135.107 17.3705 135.155 16.3337C135.159 16.227 135.173 16.1209 135.196 16.0166C135.194 15.9934 135.194 15.9701 135.196 15.9468C135.199 15.9229 135.206 15.8994 135.215 15.8771C135.215 15.8327 135.243 15.7915 135.259 15.7502C135.274 15.7134 135.291 15.6775 135.31 15.6424C135.309 15.6389 135.308 15.6352 135.308 15.6313C135.308 15.6275 135.309 15.6238 135.31 15.6202C135.326 15.5885 135.344 15.5578 135.364 15.5283C135.405 15.4595 135.456 15.3974 135.516 15.3444L135.614 15.2556C135.651 15.2281 135.689 15.2027 135.729 15.1795L135.814 15.1351C135.82 15.1329 135.827 15.1329 135.833 15.1351L135.884 15.1097L135.976 15.0749L136.036 15.0558C136.058 15.0452 136.082 15.0377 136.106 15.0336L136.21 15.0083H136.28C136.325 15.0083 136.372 15.0083 136.42 14.9893H136.566C136.686 14.9893 136.81 14.9893 136.937 14.9893C137.136 14.9893 137.333 15.0083 137.53 15.0336H137.599L137.828 15.0654C137.925 15.078 138.023 15.0939 138.122 15.1129C138.657 15.1965 139.182 15.3336 139.689 15.522C140.212 15.7293 140.712 15.9896 141.182 16.2988C141.322 16.3876 141.455 16.4827 141.588 16.5842C141.678 16.6459 141.765 16.7126 141.848 16.7839L142.029 16.9298C142.181 17.0566 142.327 17.1898 142.466 17.3293L142.609 17.472C142.695 17.5544 142.774 17.6432 142.853 17.732C143.015 17.9096 143.17 18.0966 143.313 18.2869C143.389 18.3852 143.459 18.4835 143.526 18.5818C143.806 18.9815 144.049 19.406 144.252 19.8501L144.331 20.0245L144.388 20.1608C144.413 20.2179 144.436 20.2813 144.458 20.3384C144.543 20.5635 144.623 20.7918 144.686 21.0265C144.724 21.1501 144.756 21.2769 144.784 21.4038C144.813 21.5306 144.832 21.6194 144.851 21.7209C144.87 21.8223 144.902 22.0094 144.921 22.1521C144.954 22.4235 144.973 22.6966 144.978 22.9702V22.9702Z" fill="url(#paint3_linear_596_3)"/>
</g>
<g clip-path="url(#clip0_596_3)">
<path d="M215.057 28.266C215.114 28.9183 214.93 29.5689 214.54 30.0958C214.3 30.3094 214.018 30.4707 213.712 30.5692C213.405 30.6677 213.082 30.7012 212.762 30.6676H204.27C203.981 30.6989 203.689 30.6693 203.412 30.5807C203.135 30.492 202.88 30.3462 202.664 30.1529C202.316 29.6731 202.153 29.0845 202.205 28.4947V18.0879C202.205 16.7918 202.778 16.1438 203.926 16.1438H213.45C213.668 16.1398 213.883 16.1838 214.082 16.2728C214.28 16.3618 214.456 16.4935 214.598 16.6584C214.912 17.0234 215.076 17.4932 215.057 17.9736V28.266ZM214.712 98.8265C214.749 99.1325 214.722 99.4426 214.633 99.7377C214.544 100.033 214.395 100.306 214.196 100.542C213.676 100.898 213.046 101.06 212.417 100.999H204.614C204.049 101.055 203.481 100.913 203.008 100.599C202.835 100.406 202.704 100.18 202.625 99.9333C202.546 99.6869 202.52 99.4266 202.549 99.1696V42.1037C202.507 41.6388 202.629 41.1739 202.893 40.7885C203.064 40.6345 203.267 40.519 203.487 40.4499C203.707 40.3809 203.939 40.3599 204.168 40.3883H213.348C214.266 40.3883 214.725 40.9219 214.725 41.9893L214.712 98.8265Z" fill="#034BC0"/>
<path d="M238.696 99.0551V17.859C238.654 17.3941 238.776 16.9293 239.04 16.5439C239.211 16.3899 239.413 16.2744 239.633 16.2053C239.853 16.1362 240.086 16.1152 240.315 16.1436H255.347C255.861 16.1064 256.375 16.205 256.839 16.4295C257.195 16.6948 257.44 17.0817 257.527 17.516L280.477 77.5553C280.707 78.2415 280.974 78.5846 281.28 78.5846C281.51 78.5846 281.816 78.2033 282.198 77.4409L304.804 17.9734C305.263 16.7536 305.952 16.1436 306.87 16.1436H322.476C323.47 16.1436 323.968 16.7154 323.968 17.859V98.9407C324.034 99.2244 324.026 99.5202 323.945 99.8002C323.865 100.08 323.714 100.335 323.508 100.541C323.301 100.747 323.045 100.897 322.764 100.977C322.483 101.057 322.187 101.065 321.902 100.999H312.021C311.492 101.046 310.963 100.904 310.529 100.599C310.356 100.406 310.225 100.179 310.146 99.9331C310.067 99.6867 310.041 99.4264 310.07 99.1694V36.4998C310.07 36.1186 309.993 35.9471 309.84 35.9852C309.687 36.0233 309.535 36.2351 309.382 36.6205L285.743 99.4045C285.617 99.879 285.332 100.296 284.936 100.588C284.539 100.879 284.055 101.026 283.563 101.006H276.678C276.171 101.038 275.666 100.913 275.234 100.646C274.802 100.38 274.465 99.9857 274.268 99.5189L251.114 37.3003C250.961 36.7666 250.789 36.5189 250.598 36.557C250.406 36.5951 250.311 36.8429 250.311 37.3003V99.3982C250.364 99.8501 250.241 100.305 249.966 100.669C249.565 100.948 249.075 101.07 248.589 101.012H240.532C239.308 101.003 238.696 100.351 238.696 99.0551Z" fill="#034BC0"/>
<path d="M389.133 27.3511C386.158 25.9025 382.524 25.1782 378.232 25.1782C372.8 25.1782 368.573 26.3028 365.552 28.5519C362.53 30.801 361.019 33.9077 361.019 37.8722C361.019 43.1328 364.768 47.021 372.265 49.537L389.477 54.912C402.482 58.9527 408.985 66.5768 408.985 77.7841C408.985 85.3319 406.173 91.2786 400.55 95.6243C394.928 99.97 387.22 102.143 377.428 102.143C370.161 102.143 363.735 100.885 358.15 98.369C352.876 96.1113 348.371 92.3771 345.184 87.6191C344.972 87.2637 344.818 86.878 344.725 86.4755C344.76 86.1177 344.883 85.7741 345.083 85.4749C345.283 85.1758 345.554 84.9303 345.872 84.7601L351.495 80.8718C352.027 80.4702 352.665 80.2318 353.331 80.1856C353.609 80.1935 353.881 80.271 354.122 80.4108C354.362 80.5507 354.564 80.7485 354.708 80.9861C357.844 85.0269 360.962 87.8859 364.06 89.5632C367.158 91.2405 371.347 92.0876 376.625 92.1045C382.575 92.1045 387.25 91.0753 390.65 89.0168C394.05 86.9583 395.733 83.7562 395.699 79.4105C395.78 76.8622 394.866 74.382 393.149 72.4917C391.428 70.6238 388.31 68.8894 383.797 67.2883L366.47 61.6846C360.273 59.6261 355.626 56.6146 352.528 52.6501C349.5 48.8888 347.86 44.2061 347.88 39.3843C347.8 34.8475 349.122 30.3959 351.667 26.6331C354.32 22.8309 358 19.8567 362.281 18.0561C366.833 16.0357 372.092 15.0255 378.059 15.0255C383.552 14.9475 389.001 15.9987 394.067 18.1133C398.593 19.9872 402.62 22.8844 405.829 26.5759C406.007 26.7371 406.15 26.9332 406.248 27.1518C406.347 27.3704 406.4 27.6069 406.403 27.8466C406.404 28.0688 406.353 28.2882 406.253 28.487C406.154 28.6857 406.008 28.8581 405.829 28.9902L399.288 34.0221C399.028 34.2341 398.706 34.3547 398.37 34.3651C398.141 34.3651 397.682 34.0221 396.993 33.3359C394.805 30.8331 392.131 28.7973 389.133 27.3511Z" fill="#034BC0"/>
</g>
<g clip-path="url(#clip1_596_3)">
<path d="M213.242 127.198C210.896 127.198 209.037 127.734 207.664 128.807C206.291 129.88 205.604 131.392 205.604 133.342C205.604 135.85 207.292 137.689 210.667 138.86L216.672 140.95C219.164 141.813 220.952 142.886 222.036 144.168C223.119 145.45 223.664 147.01 223.669 148.847C223.669 151.411 222.715 153.41 220.808 154.845C218.901 156.28 216.291 156.998 212.977 156.998C210.543 156.998 208.433 156.573 206.648 155.723C204.811 154.833 203.248 153.484 202.119 151.815C202.048 151.716 202.003 151.601 201.99 151.481C201.99 151.313 202.119 151.146 202.376 150.979L203.106 150.477C203.246 150.35 203.429 150.276 203.621 150.268C203.772 150.288 203.91 150.363 204.007 150.477C205.266 152.066 206.531 153.208 207.804 153.905C209.077 154.601 210.786 154.95 212.932 154.95C215.533 154.95 217.564 154.476 219.025 153.529C220.485 152.581 221.217 151.077 221.22 149.017C221.259 147.835 220.854 146.679 220.083 145.766C219.322 144.888 217.87 144.059 215.726 143.279L209.249 140.896C207.073 140.122 205.521 139.077 204.593 137.761C203.68 136.502 203.193 134.998 203.199 133.456C203.199 130.865 204.121 128.83 205.966 127.353C207.811 125.877 210.265 125.146 213.328 125.161C217.104 125.161 220.264 126.513 222.81 129.216C222.91 129.301 222.971 129.421 222.98 129.55C222.963 129.665 222.902 129.769 222.81 129.843L221.649 130.804C221.597 130.87 221.521 130.915 221.437 130.93C221.351 130.93 221.223 130.818 221.051 130.595C219.047 128.33 216.444 127.198 213.242 127.198Z" fill="white"/>
<path d="M253.704 125.713C253.731 125.771 253.741 125.834 253.734 125.897C253.726 125.959 253.701 126.019 253.662 126.069L243.411 142.913C243.329 143.04 243.277 143.183 243.261 143.331C243.244 143.512 243.237 143.693 243.24 143.875V155.996C243.25 156.08 243.242 156.165 243.215 156.245C243.189 156.325 243.145 156.399 243.087 156.461C242.928 156.56 242.739 156.605 242.551 156.586H241.309C241.239 156.596 241.167 156.59 241.1 156.568C241.033 156.546 240.973 156.509 240.923 156.461C240.873 156.412 240.835 156.353 240.813 156.287C240.79 156.222 240.784 156.153 240.794 156.085V144.256C240.793 143.946 240.704 143.642 240.536 143.378L230.11 126.115C230.05 126.029 230.02 125.926 230.024 125.822C230.024 125.655 230.164 125.572 230.453 125.572H231.912C232.066 125.563 232.22 125.591 232.36 125.655C232.491 125.743 232.602 125.857 232.684 125.99L241.437 140.536C241.635 140.87 241.824 141.037 241.995 141.037C242.108 141.037 242.267 140.898 242.472 140.619L251.182 125.99C251.248 125.847 251.352 125.725 251.483 125.634C251.62 125.584 251.766 125.563 251.912 125.572H253.371C253.434 125.565 253.499 125.574 253.557 125.599C253.616 125.624 253.667 125.663 253.704 125.713V125.713Z" fill="white"/>
<path d="M270.611 127.197C268.262 127.197 266.403 127.734 265.033 128.807C263.663 129.88 262.976 131.391 262.973 133.342C262.973 135.85 264.661 137.689 268.036 138.859L274.044 140.949C276.532 141.813 278.32 142.886 279.407 144.168C280.494 145.449 281.038 147.01 281.038 148.849C281.038 151.413 280.084 153.412 278.177 154.847C276.27 156.282 273.66 157 270.346 157C267.913 157 265.804 156.575 264.017 155.725C262.179 154.835 260.617 153.487 259.488 151.817C259.417 151.718 259.373 151.603 259.359 151.482C259.359 151.315 259.488 151.148 259.746 150.981L260.475 150.479C260.616 150.352 260.798 150.278 260.99 150.27C261.141 150.29 261.279 150.364 261.376 150.479C262.632 152.068 263.897 153.21 265.173 153.907C266.45 154.603 268.159 154.952 270.301 154.952C272.901 154.952 274.932 154.478 276.394 153.53C277.856 152.583 278.586 151.078 278.582 149.016C278.621 147.834 278.216 146.679 277.445 145.765C276.684 144.887 275.232 144.058 273.09 143.278L266.611 140.896C264.435 140.122 262.883 139.077 261.955 137.761C261.041 136.502 260.554 134.997 260.561 133.456C260.561 130.864 261.483 128.83 263.328 127.353C265.173 125.876 267.626 125.138 270.687 125.138C274.463 125.138 277.624 126.489 280.17 129.192C280.27 129.277 280.332 129.397 280.342 129.527C280.324 129.642 280.263 129.746 280.17 129.819L279.009 130.78C278.957 130.846 278.881 130.891 278.797 130.906C278.711 130.906 278.582 130.794 278.411 130.571C276.413 128.322 273.813 127.197 270.611 127.197Z" fill="white"/>
<path d="M287.814 125.902C287.807 125.856 287.811 125.81 287.826 125.767C287.841 125.723 287.866 125.683 287.899 125.651C287.933 125.618 287.973 125.594 288.018 125.579C288.063 125.565 288.11 125.561 288.157 125.568H310.469C310.516 125.561 310.564 125.565 310.608 125.579C310.653 125.594 310.694 125.618 310.727 125.651C310.761 125.683 310.786 125.723 310.8 125.767C310.815 125.81 310.819 125.856 310.813 125.902V127.251C310.82 127.3 310.816 127.349 310.801 127.396C310.786 127.443 310.761 127.487 310.727 127.523C310.636 127.573 310.531 127.595 310.426 127.585H301.416C301.298 127.574 301.178 127.596 301.072 127.648C301.015 127.69 300.987 127.794 300.987 127.962V156.134C300.998 156.258 300.968 156.383 300.901 156.489C300.855 156.53 300.8 156.56 300.741 156.578C300.682 156.596 300.619 156.602 300.558 156.594H298.97C298.842 156.605 298.714 156.576 298.605 156.51C298.534 156.454 298.498 156.329 298.498 156.134V127.948C298.498 127.781 298.469 127.676 298.412 127.634C298.306 127.582 298.187 127.56 298.069 127.572H288.205C288.1 127.581 287.996 127.559 287.904 127.509C287.87 127.473 287.845 127.429 287.83 127.382C287.815 127.335 287.811 127.286 287.818 127.237L287.814 125.902Z" fill="white"/>
<path d="M319.738 125.651C319.838 125.582 319.96 125.553 320.081 125.567H338.232C338.432 125.567 338.532 125.678 338.532 125.901V127.197C338.543 127.302 338.512 127.407 338.446 127.49C338.361 127.554 338.253 127.584 338.146 127.573H322.532C322.414 127.562 322.295 127.584 322.189 127.636C322.131 127.678 322.103 127.782 322.103 127.949V139.56C322.096 139.609 322.1 139.658 322.114 139.705C322.129 139.752 322.155 139.796 322.189 139.832C322.295 139.884 322.414 139.906 322.532 139.895H334.632C334.679 139.888 334.726 139.892 334.771 139.906C334.816 139.921 334.857 139.945 334.89 139.978C334.923 140.01 334.948 140.05 334.963 140.094C334.978 140.137 334.982 140.183 334.975 140.229V141.566C334.983 141.615 334.979 141.665 334.964 141.712C334.949 141.759 334.924 141.802 334.89 141.838C334.798 141.888 334.694 141.91 334.589 141.901H322.532C322.414 141.89 322.295 141.911 322.189 141.964C322.131 142.005 322.103 142.11 322.103 142.277V154.19C322.103 154.357 322.131 154.461 322.189 154.503C322.295 154.555 322.414 154.577 322.532 154.566H338.794C338.899 154.557 339.003 154.579 339.095 154.629C339.129 154.665 339.154 154.708 339.169 154.755C339.184 154.802 339.188 154.852 339.18 154.9V156.238C339.187 156.283 339.183 156.33 339.168 156.373C339.153 156.417 339.128 156.456 339.095 156.489C339.062 156.521 339.021 156.546 338.976 156.56C338.931 156.575 338.884 156.579 338.837 156.572H320.086C319.965 156.586 319.843 156.557 319.743 156.489C319.67 156.377 319.64 156.244 319.657 156.112V126.017C319.641 125.89 319.669 125.76 319.738 125.651Z" fill="white"/>
<path d="M348.229 156.122V126.027C348.212 125.896 348.242 125.763 348.315 125.651C348.415 125.583 348.537 125.553 348.658 125.567H350.461C350.59 125.553 350.72 125.582 350.83 125.651C350.94 125.719 351.021 125.823 351.061 125.944L362.089 153.027C362.175 153.277 362.275 153.403 362.389 153.403C362.504 153.403 362.618 153.263 362.732 152.985L373.889 125.899C373.923 125.795 373.993 125.706 374.087 125.645C374.18 125.585 374.292 125.556 374.403 125.565H376.334C376.455 125.551 376.578 125.581 376.678 125.649C376.75 125.76 376.781 125.893 376.763 126.025V156.12C376.763 156.429 376.62 156.584 376.334 156.584H374.79C374.662 156.595 374.534 156.566 374.425 156.501C374.383 156.456 374.352 156.403 374.333 156.345C374.315 156.287 374.309 156.226 374.318 156.166V130.792C374.318 130.681 374.296 130.632 374.253 130.646C374.21 130.66 374.175 130.709 374.146 130.792L363.772 156.122C363.722 156.269 363.623 156.394 363.49 156.479C363.358 156.563 363.2 156.601 363.042 156.586H361.669C361.24 156.586 360.968 156.432 360.854 156.122L350.642 131.001C350.613 130.918 350.585 130.869 350.556 130.855C350.527 130.841 350.513 130.89 350.513 131.001V156.164C350.513 156.442 350.354 156.582 350.036 156.582H348.663C348.374 156.582 348.229 156.429 348.229 156.122Z" fill="white"/>
<path d="M397.275 127.198C394.929 127.198 393.07 127.734 391.697 128.807C390.324 129.88 389.637 131.392 389.637 133.342C389.637 135.85 391.325 137.689 394.7 138.86L400.708 140.95C403.196 141.813 404.984 142.886 406.071 144.168C407.158 145.45 407.702 147.01 407.702 148.85C407.702 151.413 406.748 153.413 404.841 154.848C402.934 156.283 400.324 157 397.01 157C394.579 157 392.469 156.575 390.681 155.725C388.844 154.834 387.282 153.486 386.152 151.817C386.081 151.718 386.037 151.603 386.023 151.483C386.023 151.316 386.152 151.148 386.41 150.981L387.139 150.48C387.28 150.352 387.462 150.278 387.654 150.271C387.806 150.289 387.944 150.364 388.04 150.48C389.299 152.068 390.565 153.21 391.838 153.907C393.11 154.604 394.82 154.952 396.965 154.952C399.568 154.952 401.599 154.478 403.058 153.531C404.517 152.584 405.246 151.079 405.246 149.017C405.286 147.834 404.882 146.678 404.109 145.766C403.351 144.888 401.9 144.059 399.754 143.279L393.275 140.896C391.101 140.122 389.549 139.077 388.619 137.761C387.706 136.502 387.219 134.998 387.225 133.456C387.225 130.865 388.147 128.83 389.992 127.353C391.838 125.877 394.294 125.146 397.361 125.161C401.137 125.161 404.298 126.513 406.844 129.216C406.894 129.258 406.935 129.309 406.964 129.366C406.994 129.424 407.011 129.486 407.015 129.55C406.998 129.665 406.936 129.77 406.844 129.843L405.685 130.804C405.632 130.87 405.555 130.915 405.471 130.93C405.385 130.93 405.256 130.818 405.084 130.595C403.082 128.33 400.479 127.198 397.275 127.198Z" fill="white"/>
</g>
<defs>
<filter id="filter0_d_596_3" x="0" y="0.757812" width="123.82" height="187.816" filterUnits="userSpaceOnUse" color-interpolation-filters="sRGB">
<feFlood flood-opacity="0" result="BackgroundImageFix"/>
<feColorMatrix in="SourceAlpha" type="matrix" values="0 0 0 0 0 0 0 0 0 0 0 0 0 0 0 0 0 0 127 0" result="hardAlpha"/>
<feOffset dx="8" dy="8"/>
<feGaussianBlur stdDeviation="8"/>
<feComposite in2="hardAlpha" operator="out"/>
<feColorMatrix type="matrix" values="0 0 0 0 0 0 0 0 0 0 0 0 0 0 0 0 0 0 0.35 0"/>
<feBlend mode="normal" in2="BackgroundImageFix" result="effect1_dropShadow_596_3"/>
<feBlend mode="normal" in="SourceGraphic" in2="effect1_dropShadow_596_3" result="shape"/>
</filter>
<filter id="filter1_d_596_3" x="95.8203" y="20.8057" width="51.3262" height="139.629" filterUnits="userSpaceOnUse" color-interpolation-filters="sRGB">
<feFlood flood-opacity="0" result="BackgroundImageFix"/>
<feColorMatrix in="SourceAlpha" type="matrix" values="0 0 0 0 0 0 0 0 0 0 0 0 0 0 0 0 0 0 127 0" result="hardAlpha"/>
<feOffset dx="4" dy="4"/>
<feGaussianBlur stdDeviation="4"/>
<feComposite in2="hardAlpha" operator="out"/>
<feColorMatrix type="matrix" values="0 0 0 0 0 0 0 0 0 0 0 0 0 0 0 0 0 0 0.35 0"/>
<feBlend mode="normal" in2="BackgroundImageFix" result="effect1_dropShadow_596_3"/>
<feBlend mode="normal" in="SourceGraphic" in2="effect1_dropShadow_596_3" result="shape"/>
</filter>
<filter id="filter2_d_596_3" x="123.178" y="0" width="48.752" height="48.75" filterUnits="userSpaceOnUse" color-interpolation-filters="sRGB">
<feFlood flood-opacity="0" result="BackgroundImageFix"/>
<feColorMatrix in="SourceAlpha" type="matrix" values="0 0 0 0 0 0 0 0 0 0 0 0 0 0 0 0 0 0 127 0" result="hardAlpha"/>
<feOffset dx="4" dy="8"/>
<feGaussianBlur stdDeviation="8"/>
<feComposite in2="hardAlpha" operator="out"/>
<feColorMatrix type="matrix" values="0 0 0 0 0 0 0 0 0 0 0 0 0 0 0 0 0 0 0.35 0"/>
<feBlend mode="normal" in2="BackgroundImageFix" result="effect1_dropShadow_596_3"/>
<feBlend mode="normal" in="SourceGraphic" in2="effect1_dropShadow_596_3" result="shape"/>
</filter>
<filter id="filter3_d_596_3" x="123.152" y="6.98926" width="41.8262" height="41.772" filterUnits="userSpaceOnUse" color-interpolation-filters="sRGB">
<feFlood flood-opacity="0" result="BackgroundImageFix"/>
<feColorMatrix in="SourceAlpha" type="matrix" values="0 0 0 0 0 0 0 0 0 0 0 0 0 0 0 0 0 0 127 0" result="hardAlpha"/>
<feOffset dx="4" dy="8"/>
<feGaussianBlur stdDeviation="8"/>
<feComposite in2="hardAlpha" operator="out"/>
<feColorMatrix type="matrix" values="0 0 0 0 0 0 0 0 0 0 0 0 0 0 0 0 0 0 0.35 0"/>
<feBlend mode="normal" in2="BackgroundImageFix" result="effect1_dropShadow_596_3"/>
<feBlend mode="normal" in="SourceGraphic" in2="effect1_dropShadow_596_3" result="shape"/>
</filter>
<linearGradient id="paint0_linear_596_3" x1="27.0628" y1="87.4004" x2="96.0372" y2="86.6711" gradientUnits="userSpaceOnUse">
<stop stop-color="#009DF0"/>
<stop offset="1" stop-color="#034BC0"/>
</linearGradient>
<linearGradient id="paint1_linear_596_3" x1="99.2876" y1="87.2801" x2="131.668" y2="86.6333" gradientUnits="userSpaceOnUse">
<stop stop-color="#009DF0"/>
<stop offset="1" stop-color="#034BC0"/>
</linearGradient>
<linearGradient id="paint2_linear_596_3" x1="136.984" y1="22.7923" x2="146.94" y2="13.0802" gradientUnits="userSpaceOnUse">
<stop offset="0.05" stop-color="#009DF0"/>
<stop offset="1" stop-color="#034BC0"/>
</linearGradient>
<linearGradient id="paint3_linear_596_3" x1="137.016" y1="22.8275" x2="146.975" y2="13.1153" gradientUnits="userSpaceOnUse">
<stop stop-color="#009DF0"/>
<stop offset="1" stop-color="#034BC0"/>
</linearGradient>
<clipPath id="clip0_596_3">
<rect width="206.779" height="87.1428" fill="white" transform="translate(202.205 15)"/>
</clipPath>
<clipPath id="clip1_596_3">
<rect width="205.701" height="31.8505" fill="white" transform="translate(202 125.149)"/>
</clipPath>
</defs>
</svg>
