<svg width="172" height="189" viewBox="0 0 172 189" fill="none" xmlns="http://www.w3.org/2000/svg">
<path d="M139.69 15.5221C139.206 15.3305 138.705 15.1861 138.193 15.0908C138.705 15.1867 139.206 15.3311 139.69 15.5221ZM136.475 14.9704H136.63H136.475ZM136.63 14.9704C136.721 14.9704 136.816 14.9704 136.915 14.9704H137.004C137.204 14.9704 137.4 14.9894 137.594 15.0116C137.397 14.9862 137.201 14.9735 137.001 14.9672C136.874 14.9545 136.75 14.9577 136.63 14.9608V14.9704Z" fill="white"/>
<g filter="url(#filter0_d_574_790)">
<path d="M99.7977 34.0328H99.8199V28.6995H99.7407V28.6075C99.7407 27.5041 99.7407 16.7424 99.7407 11.9355C99.7407 9.33225 98.4121 8.32077 95.8438 8.92956C69.0505 15.2807 8.10147 29.9678 8.10147 29.9678L27.1262 28.8422C27.3421 28.8296 27.5581 28.8613 27.7612 28.9354C27.9643 29.0094 28.1501 29.1242 28.3072 29.2727C28.4643 29.4212 28.5894 29.6002 28.6748 29.7988C28.7601 29.9974 28.804 30.2114 28.8036 30.4276V142.927C28.804 143.144 28.7601 143.358 28.6745 143.557C28.5889 143.756 28.4636 143.935 28.3061 144.083C28.1487 144.232 27.9625 144.347 27.759 144.421C27.5556 144.494 27.3391 144.526 27.1231 144.513L8 143.375C8 143.375 88.5573 162.688 95.8311 164.403C98.3994 165.012 99.7248 163.997 99.7312 161.394C99.7312 159.473 99.7312 157.551 99.7312 155.626V144.592H99.8104V139.262H99.7882L99.7977 34.0328ZM90.501 151.847C90.5036 152.077 90.4562 152.304 90.3621 152.514C90.268 152.724 90.1294 152.91 89.956 153.061C89.7825 153.212 89.5784 153.323 89.3577 153.387C89.137 153.451 88.905 153.467 88.6777 153.432L35.5701 145.337C35.192 145.28 34.8474 145.088 34.5998 144.797C34.3522 144.505 34.2182 144.134 34.2225 143.752V29.5524C34.222 29.1728 34.3577 28.8056 34.605 28.5176C34.8523 28.2295 35.1948 28.0398 35.5701 27.9829L88.6777 19.9005C88.9034 19.8663 89.1337 19.8812 89.3531 19.9441C89.5724 20.0071 89.7756 20.1167 89.9487 20.2654C90.1218 20.4142 90.2608 20.5985 90.3561 20.8058C90.4514 21.0132 90.5008 21.2387 90.501 21.4669V151.847Z" fill="white"/>
</g>
<g filter="url(#filter1_d_574_790)">
<path d="M135.143 28.595V144.732C135.143 147.979 134.249 148.73 131.021 148.34C121.528 147.196 101.257 144.773 99.8298 144.602V139.262H124.286C124.707 139.262 125.11 139.095 125.407 138.798C125.705 138.5 125.872 138.097 125.872 137.677V35.6184C125.872 35.1979 125.705 34.7946 125.407 34.4973C125.11 34.2 124.707 34.033 124.286 34.033H99.8203V28.6997C101.358 28.5158 124.759 25.7033 132.055 24.8313C133.84 24.6189 135.083 25.7445 135.143 27.5518C135.152 27.8943 135.143 28.2431 135.143 28.595Z" fill="white"/>
</g>
<g filter="url(#filter2_d_574_790)">
<path d="M151.928 23.0618C151.95 24.0416 151.5 24.717 150.514 24.7487C149.528 24.7804 149.081 24.1558 149.014 23.1633C148.538 16.1115 144.042 11.5772 136.943 10.9114C135.992 10.8226 135.129 10.5309 135.18 9.41474C135.231 8.29862 136.09 7.98471 137.136 8.00057H137.542H137.812L138.221 8.03227C138.382 8.03227 138.538 8.06398 138.699 8.08618C138.861 8.10837 138.944 8.11789 139.064 8.14008C139.185 8.16228 139.349 8.18447 139.492 8.21301C139.568 8.21301 139.641 8.23837 139.714 8.25423L139.949 8.30496L140.339 8.39691C140.491 8.43496 140.656 8.47936 140.799 8.52375L140.913 8.55545C141.063 8.59985 141.212 8.64741 141.36 8.69814L141.699 8.81546C141.813 8.85351 141.924 8.8979 142.035 8.94229L142.225 9.04059C142.285 9.06161 142.343 9.08596 142.4 9.11352C142.577 9.18961 142.755 9.26571 142.929 9.34815C143.104 9.43059 143.215 9.48133 143.354 9.55426L143.636 9.70011L143.823 9.80475L144.099 9.96012C144.34 10.0954 144.578 10.2413 144.813 10.3977C144.892 10.4516 144.971 10.5023 145.051 10.5594C146.778 11.7338 148.258 13.2355 149.407 14.9795C149.518 15.1507 149.629 15.3251 149.724 15.4995C149.819 15.6739 149.94 15.861 150.041 16.048C150.143 16.2351 150.241 16.419 150.336 16.6061C150.431 16.7932 150.52 16.9834 150.606 17.1769C150.606 17.2149 150.641 17.2529 150.66 17.2942C150.679 17.3354 150.726 17.4495 150.758 17.5256C150.866 17.7825 150.964 18.0393 151.056 18.3025C151.113 18.461 151.167 18.6196 151.218 18.7781C151.265 18.9303 151.313 19.0952 151.357 19.241C151.424 19.4757 151.484 19.7103 151.538 19.9481C151.582 20.1384 151.624 20.3286 151.658 20.522C151.693 20.7155 151.728 20.9089 151.757 21.1023C151.785 21.2957 151.811 21.4923 151.83 21.6857C151.849 21.8791 151.865 22.0567 151.877 22.2406C151.89 22.4245 151.899 22.6465 151.906 22.8526C151.925 22.8589 151.925 22.9604 151.928 23.0618Z" fill="white"/>
</g>
<g filter="url(#filter3_d_574_790)">
<path d="M144.978 22.9702C145.003 23.9214 144.683 24.657 143.671 24.7521C142.66 24.8473 142.2 24.1751 142.051 23.2428C141.474 19.6789 140.171 18.363 136.74 17.8905C135.811 17.7605 135.107 17.3705 135.155 16.3337C135.159 16.227 135.173 16.1209 135.196 16.0166C135.194 15.9934 135.194 15.9701 135.196 15.9468C135.199 15.9229 135.206 15.8994 135.215 15.8771C135.215 15.8327 135.243 15.7915 135.259 15.7502C135.274 15.7134 135.291 15.6775 135.31 15.6424C135.309 15.6389 135.308 15.6352 135.308 15.6313C135.308 15.6275 135.309 15.6238 135.31 15.6202C135.326 15.5885 135.344 15.5578 135.364 15.5283C135.405 15.4595 135.456 15.3974 135.516 15.3444L135.614 15.2556C135.651 15.2281 135.689 15.2027 135.729 15.1795L135.814 15.1351C135.82 15.1329 135.827 15.1329 135.833 15.1351L135.884 15.1097L135.976 15.0749L136.036 15.0558C136.058 15.0452 136.082 15.0377 136.106 15.0336L136.21 15.0083H136.28C136.325 15.0083 136.372 15.0083 136.42 14.9893H136.566C136.686 14.9893 136.81 14.9893 136.937 14.9893C137.136 14.9893 137.333 15.0083 137.53 15.0336H137.599L137.828 15.0654C137.925 15.078 138.023 15.0939 138.122 15.1129C138.657 15.1965 139.182 15.3336 139.689 15.522C140.212 15.7293 140.712 15.9896 141.182 16.2988C141.322 16.3876 141.455 16.4827 141.588 16.5842C141.678 16.6459 141.765 16.7126 141.848 16.7839L142.029 16.9298C142.181 17.0566 142.327 17.1898 142.466 17.3293L142.609 17.472C142.695 17.5544 142.774 17.6432 142.853 17.732C143.015 17.9096 143.17 18.0966 143.313 18.2869C143.389 18.3852 143.459 18.4835 143.526 18.5818C143.806 18.9815 144.049 19.406 144.252 19.8501L144.331 20.0245L144.388 20.1608C144.413 20.2179 144.436 20.2813 144.458 20.3384C144.543 20.5635 144.623 20.7918 144.686 21.0265C144.724 21.1501 144.756 21.2769 144.784 21.4038C144.813 21.5306 144.832 21.6194 144.851 21.7209C144.87 21.8223 144.902 22.0094 144.921 22.1521C144.954 22.4235 144.973 22.6966 144.978 22.9702Z" fill="white"/>
</g>
<defs>
<filter id="filter0_d_574_790" x="0" y="0.757812" width="123.82" height="187.816" filterUnits="userSpaceOnUse" color-interpolation-filters="sRGB">
<feFlood flood-opacity="0" result="BackgroundImageFix"/>
<feColorMatrix in="SourceAlpha" type="matrix" values="0 0 0 0 0 0 0 0 0 0 0 0 0 0 0 0 0 0 127 0" result="hardAlpha"/>
<feOffset dx="8" dy="8"/>
<feGaussianBlur stdDeviation="8"/>
<feComposite in2="hardAlpha" operator="out"/>
<feColorMatrix type="matrix" values="0 0 0 0 0 0 0 0 0 0 0 0 0 0 0 0 0 0 0.35 0"/>
<feBlend mode="normal" in2="BackgroundImageFix" result="effect1_dropShadow_574_790"/>
<feBlend mode="normal" in="SourceGraphic" in2="effect1_dropShadow_574_790" result="shape"/>
</filter>
<filter id="filter1_d_574_790" x="95.8203" y="20.8057" width="51.3262" height="139.629" filterUnits="userSpaceOnUse" color-interpolation-filters="sRGB">
<feFlood flood-opacity="0" result="BackgroundImageFix"/>
<feColorMatrix in="SourceAlpha" type="matrix" values="0 0 0 0 0 0 0 0 0 0 0 0 0 0 0 0 0 0 127 0" result="hardAlpha"/>
<feOffset dx="4" dy="4"/>
<feGaussianBlur stdDeviation="4"/>
<feComposite in2="hardAlpha" operator="out"/>
<feColorMatrix type="matrix" values="0 0 0 0 0 0 0 0 0 0 0 0 0 0 0 0 0 0 0.35 0"/>
<feBlend mode="normal" in2="BackgroundImageFix" result="effect1_dropShadow_574_790"/>
<feBlend mode="normal" in="SourceGraphic" in2="effect1_dropShadow_574_790" result="shape"/>
</filter>
<filter id="filter2_d_574_790" x="123.178" y="0" width="48.752" height="48.75" filterUnits="userSpaceOnUse" color-interpolation-filters="sRGB">
<feFlood flood-opacity="0" result="BackgroundImageFix"/>
<feColorMatrix in="SourceAlpha" type="matrix" values="0 0 0 0 0 0 0 0 0 0 0 0 0 0 0 0 0 0 127 0" result="hardAlpha"/>
<feOffset dx="4" dy="8"/>
<feGaussianBlur stdDeviation="8"/>
<feComposite in2="hardAlpha" operator="out"/>
<feColorMatrix type="matrix" values="0 0 0 0 0 0 0 0 0 0 0 0 0 0 0 0 0 0 0.35 0"/>
<feBlend mode="normal" in2="BackgroundImageFix" result="effect1_dropShadow_574_790"/>
<feBlend mode="normal" in="SourceGraphic" in2="effect1_dropShadow_574_790" result="shape"/>
</filter>
<filter id="filter3_d_574_790" x="123.152" y="6.98926" width="41.8262" height="41.7715" filterUnits="userSpaceOnUse" color-interpolation-filters="sRGB">
<feFlood flood-opacity="0" result="BackgroundImageFix"/>
<feColorMatrix in="SourceAlpha" type="matrix" values="0 0 0 0 0 0 0 0 0 0 0 0 0 0 0 0 0 0 127 0" result="hardAlpha"/>
<feOffset dx="4" dy="8"/>
<feGaussianBlur stdDeviation="8"/>
<feComposite in2="hardAlpha" operator="out"/>
<feColorMatrix type="matrix" values="0 0 0 0 0 0 0 0 0 0 0 0 0 0 0 0 0 0 0.35 0"/>
<feBlend mode="normal" in2="BackgroundImageFix" result="effect1_dropShadow_574_790"/>
<feBlend mode="normal" in="SourceGraphic" in2="effect1_dropShadow_574_790" result="shape"/>
</filter>
</defs>
</svg>
