<svg id="Layer_2" data-name="Layer 2" xmlns="http://www.w3.org/2000/svg" xmlns:xlink="http://www.w3.org/1999/xlink" width="24.79" height="16.804" viewBox="0 0 24.79 16.804">
  <defs>
    <clipPath id="clip-path">
      <path id="Path_65" data-name="Path 65" d="M18.957,3.527l-.406.416a5.4,5.4,0,0,1,.6,1.485,3.731,3.731,0,0,1,.16,1.2,3.488,3.488,0,0,1-.069.757,1.034,1.034,0,0,0-1.225-.223c.015-.156.035-.386.033-.535a4.124,4.124,0,1,0-1.3,3.061,4.281,4.281,0,0,0,.3-.33l.019,1.654c-.067.045-.156.111-.238.167a5.342,5.342,0,0,1-1.68.713L15.1,13v.069a.269.269,0,0,1-.267.252H13a.273.273,0,0,1-.269-.252L12.687,11.9a5.32,5.32,0,0,1-1.643-.689l-.761.668-.111.1a.267.267,0,0,1-.371-.022L8.544,10.636a.269.269,0,0,1,0-.371l.781-.809a5.294,5.294,0,0,1-.635-1.542l-1.16-.048A.271.271,0,0,1,7.28,7.6V5.769A.269.269,0,0,1,7.531,5.5l1.151-.048a5.349,5.349,0,0,1,.611-1.522l-.806-.876A.267.267,0,0,1,8.5,2.682L9.786,1.394a.269.269,0,0,1,.371-.013L11,2.153a5.323,5.323,0,0,1,1.695-.724L12.739.247A.271.271,0,0,1,13,0h1.823a.267.267,0,0,1,.267.251l.033.78.017.4a5.383,5.383,0,0,1,1.708.731l.6-.529.29-.254a.271.271,0,0,1,.371.022l1.257,1.318a.269.269,0,0,1,0,.371Z" transform="translate(-7.28 0)" fill="none"/>
    </clipPath>
    <clipPath id="clip-path-2">
      <path id="Path_67" data-name="Path 67" d="M27.243,34.56H25.886a.108.108,0,0,0-.106.108v2.042A3.8,3.8,0,0,0,27.348,38.1V34.668a.108.108,0,0,0-.106-.108Z" transform="translate(-25.78 -34.56)" fill="none"/>
    </clipPath>
    <clipPath id="clip-path-3">
      <path id="Path_69" data-name="Path 69" d="M40.263,29.27H38.908a.108.108,0,0,0-.108.108v4.7a3.814,3.814,0,0,0,1.57,0v-4.7A.108.108,0,0,0,40.263,29.27Z" transform="translate(-38.8 -29.27)" fill="none"/>
    </clipPath>
    <clipPath id="clip-path-4">
      <path id="Path_71" data-name="Path 71" d="M53.39,28.113v-4A.108.108,0,0,0,53.283,24H51.928a.108.108,0,0,0-.108.106v5.383A3.809,3.809,0,0,0,53.39,28.113Z" transform="translate(-51.82 -24)" fill="none"/>
    </clipPath>
  </defs>
  <g id="Layer_1" data-name="Layer 1" transform="translate(0 0)">
    <g id="RGB_Digital_Version_logo" data-name="RGB Digital Version logo" transform="translate(0 0)">
      <g id="Logo_2" data-name="Logo 2">
        <g id="IMS">
          <g id="Icon">
            <path id="Path_60" data-name="Path 60" d="M18.957,3.527l-.406.416a5.4,5.4,0,0,1,.6,1.485,3.731,3.731,0,0,1,.16,1.2,3.488,3.488,0,0,1-.069.757,1.034,1.034,0,0,0-1.225-.223c.015-.156.035-.386.033-.535a4.124,4.124,0,1,0-1.3,3.061,4.281,4.281,0,0,0,.3-.33l.019,1.654c-.067.045-.156.111-.238.167a5.342,5.342,0,0,1-1.68.713L15.1,13v.069a.269.269,0,0,1-.267.252H13a.273.273,0,0,1-.269-.252L12.687,11.9a5.32,5.32,0,0,1-1.643-.689l-.761.668-.111.1a.267.267,0,0,1-.371-.022L8.544,10.636a.269.269,0,0,1,0-.371l.781-.809a5.294,5.294,0,0,1-.635-1.542l-1.16-.048A.271.271,0,0,1,7.28,7.6V5.769A.269.269,0,0,1,7.531,5.5l1.151-.048a5.349,5.349,0,0,1,.611-1.522l-.806-.876A.267.267,0,0,1,8.5,2.682L9.786,1.394a.269.269,0,0,1,.371-.013L11,2.153a5.323,5.323,0,0,1,1.695-.724L12.739.247A.271.271,0,0,1,13,0h1.823a.267.267,0,0,1,.267.251l.033.78.017.4a5.383,5.383,0,0,1,1.708.731l.6-.529.29-.254a.271.271,0,0,1,.371.022l1.257,1.318a.269.269,0,0,1,0,.371Z" transform="translate(-5.929 0)" fill="#4284f3"/>
            <path id="Path_61" data-name="Path 61" d="M27.243,34.56H25.886a.108.108,0,0,0-.106.108v2.042A3.8,3.8,0,0,0,27.348,38.1V34.668a.108.108,0,0,0-.106-.108Z" transform="translate(-20.995 -28.145)" fill="#e94335"/>
            <path id="Path_62" data-name="Path 62" d="M40.263,29.27H38.908a.108.108,0,0,0-.108.108v4.7a3.814,3.814,0,0,0,1.57,0v-4.7A.108.108,0,0,0,40.263,29.27Z" transform="translate(-31.598 -23.837)" fill="#4284f3"/>
            <path id="Path_63" data-name="Path 63" d="M53.39,28.113v-4A.108.108,0,0,0,53.283,24H51.928a.108.108,0,0,0-.108.106v5.383A3.809,3.809,0,0,0,53.39,28.113Z" transform="translate(-42.201 -19.545)" fill="#34a753"/>
            <g id="Group_13" data-name="Group 13" transform="translate(1.351)" clip-path="url(#clip-path)">
              <path id="Path_64" data-name="Path 64" d="M1.79,19.436C7.78,20.921,13,19.1,16.4,13.96h0C13.614,21.227,5.562,21.227,1.79,19.436Z" transform="translate(-2.809 -11.369)" fill="#3572c8"/>
            </g>
            <g id="Group_14" data-name="Group 14" transform="translate(4.785 6.415)" clip-path="url(#clip-path-2)">
              <path id="Path_66" data-name="Path 66" d="M1.79,19.436C7.78,20.921,13,19.1,16.4,13.96h0C13.614,21.227,5.562,21.227,1.79,19.436Z" transform="translate(-6.243 -17.784)" fill="#be312b"/>
            </g>
            <g id="Group_15" data-name="Group 15" transform="translate(7.202 5.433)" clip-path="url(#clip-path-3)">
              <path id="Path_68" data-name="Path 68" d="M1.79,19.436C7.78,20.921,13,19.1,16.4,13.96h0C13.614,21.227,5.562,21.227,1.79,19.436Z" transform="translate(-8.66 -16.802)" fill="#3572c8"/>
            </g>
            <g id="Group_16" data-name="Group 16" transform="translate(9.619 4.455)" clip-path="url(#clip-path-4)">
              <path id="Path_70" data-name="Path 70" d="M1.79,19.436C7.78,20.921,13,19.1,16.4,13.96h0C13.614,21.227,5.562,21.227,1.79,19.436Z" transform="translate(-11.076 -15.824)" fill="#29863f"/>
            </g>
            <path id="Path_72" data-name="Path 72" d="M0,12.434c6.181,1.069,11.263-.347,14.664-5.485l-.715-.1L15.592,5.52l-.165,2.131-.49-.557C10.977,14.665,3.649,13.787,0,12.434Z" transform="translate(0 -4.495)" fill="#fabb05"/>
          </g>
          <path id="Path_73" data-name="Path 73" d="M64.152,42.644a.6.6,0,0,1,0-.882.7.7,0,0,1,.5-.186.722.722,0,0,1,.5.171.557.557,0,0,1,.186.427.6.6,0,0,1-.186.458.689.689,0,0,1-.5.186A.7.7,0,0,1,64.152,42.644Zm-.058.711h1.114v3.827H64.095Z" transform="translate(-52.087 -33.859)" fill="#fff"/>
          <path id="Path_74" data-name="Path 74" d="M81.171,49.971V46.984L79.7,49.444h-.52l-1.457-2.4v2.929H76.64V45h.954l1.856,3.092L81.292,45h.945l.015,4.978Z" transform="translate(-62.414 -36.647)" fill="#fff"/>
          <path id="Path_75" data-name="Path 75" d="M112.005,49.481a2.656,2.656,0,0,1-.885-.416l.392-.867a2.675,2.675,0,0,0,.761.371,2.862,2.862,0,0,0,.882.143,1.416,1.416,0,0,0,.726-.147.44.44,0,0,0,.234-.388.371.371,0,0,0-.137-.3,1.043,1.043,0,0,0-.356-.186c-.145-.048-.34-.1-.587-.158a8.149,8.149,0,0,1-.928-.269,1.528,1.528,0,0,1-.622-.434,1.171,1.171,0,0,1-.26-.8,1.385,1.385,0,0,1,.234-.785,1.581,1.581,0,0,1,.709-.557,2.881,2.881,0,0,1,1.158-.2,3.813,3.813,0,0,1,.928.113,2.766,2.766,0,0,1,.8.327l-.355.876a2.771,2.771,0,0,0-1.381-.392,1.3,1.3,0,0,0-.715.156.475.475,0,0,0-.23.412.4.4,0,0,0,.267.381,4.141,4.141,0,0,0,.813.247,8.149,8.149,0,0,1,.928.269,1.546,1.546,0,0,1,.622.427,1.136,1.136,0,0,1,.26.789,1.368,1.368,0,0,1-.238.78,1.624,1.624,0,0,1-.715.557,2.921,2.921,0,0,1-1.168.208A4.039,4.039,0,0,1,112.005,49.481Z" transform="translate(-90.494 -36.234)" fill="#fff"/>
          <path id="Path_76" data-name="Path 76" d="M7.614,82.4a.7.7,0,0,1-.284-.169l.074-.147a.726.726,0,0,0,.26.158A.928.928,0,0,0,8,82.3a.605.605,0,0,0,.362-.089.275.275,0,0,0,.121-.23.232.232,0,0,0-.065-.171.436.436,0,0,0-.16-.1,2.57,2.57,0,0,0-.265-.082,3.09,3.09,0,0,1-.323-.1.535.535,0,0,1-.212-.139.386.386,0,0,1-.085-.265.46.46,0,0,1,.085-.239.5.5,0,0,1,.221-.186.906.906,0,0,1,.371-.067,1.1,1.1,0,0,1,.3.043A.856.856,0,0,1,8.6,80.8l-.065.15a.913.913,0,0,0-.492-.148.587.587,0,0,0-.366.091.282.282,0,0,0-.119.236.232.232,0,0,0,.065.173.451.451,0,0,0,.163.1c.067.022.154.048.265.074a2.881,2.881,0,0,1,.319.1.509.509,0,0,1,.206.145.371.371,0,0,1,.085.26.442.442,0,0,1-.072.247.5.5,0,0,1-.225.186A.928.928,0,0,1,8,82.474,1.156,1.156,0,0,1,7.614,82.4Z" transform="translate(-5.969 -65.67)" fill="#fff"/>
          <path id="Path_77" data-name="Path 77" d="M26.464,81.895v.62h-.186v-.62L25.56,80.72h.2l.622,1.008L27,80.72h.186Z" transform="translate(-20.816 -65.737)" fill="#fff"/>
          <path id="Path_78" data-name="Path 78" d="M45.6,82.4a.679.679,0,0,1-.282-.169l.074-.147a.716.716,0,0,0,.258.158.928.928,0,0,0,.334.061.6.6,0,0,0,.36-.089.271.271,0,0,0,.121-.23.225.225,0,0,0-.065-.171.421.421,0,0,0-.16-.1,2.438,2.438,0,0,0-.265-.082,3.241,3.241,0,0,1-.323-.1.535.535,0,0,1-.208-.139.386.386,0,0,1-.085-.265.447.447,0,0,1,.074-.239.484.484,0,0,1,.219-.186.906.906,0,0,1,.371-.067,1.1,1.1,0,0,1,.3.043.845.845,0,0,1,.254.117l-.063.15a.98.98,0,0,0-.241-.111.928.928,0,0,0-.252-.037.59.59,0,0,0-.356.091.282.282,0,0,0-.119.236.239.239,0,0,0,.065.173.466.466,0,0,0,.163.1c.067.022.156.048.265.074a2.763,2.763,0,0,1,.319.1.527.527,0,0,1,.208.145.371.371,0,0,1,.084.26.442.442,0,0,1-.072.247.5.5,0,0,1-.225.186.915.915,0,0,1-.371.067A1.16,1.16,0,0,1,45.6,82.4Z" transform="translate(-36.908 -65.67)" fill="#fff"/>
          <path id="Path_79" data-name="Path 79" d="M64.231,80.885H63.6V80.72h1.452v.165H64.42v1.63h-.189Z" transform="translate(-51.795 -65.737)" fill="#fff"/>
          <path id="Path_80" data-name="Path 80" d="M84.928,82.352v.163H83.66V80.72h1.231v.165H83.849v.639h.928v.161h-.928v.666Z" transform="translate(-68.131 -65.737)" fill="#fff"/>
          <path id="Path_81" data-name="Path 81" d="M105.291,80.72v1.795h-.186V81.08l-.705,1.206h-.089l-.705-1.2v1.427h-.186V80.72h.156l.78,1.331.772-1.331Z" transform="translate(-84.224 -65.737)" fill="#fff"/>
          <path id="Path_82" data-name="Path 82" d="M126.574,82.367a.7.7,0,0,1-.284-.169l.074-.147a.726.726,0,0,0,.26.158.928.928,0,0,0,.332.061.605.605,0,0,0,.371-.089.275.275,0,0,0,.121-.23.232.232,0,0,0-.065-.171.436.436,0,0,0-.16-.1,2.569,2.569,0,0,0-.265-.076,3.09,3.09,0,0,1-.323-.1.535.535,0,0,1-.206-.145.386.386,0,0,1-.085-.265.46.46,0,0,1,.071-.247.5.5,0,0,1,.221-.186.906.906,0,0,1,.371-.067,1.1,1.1,0,0,1,.3.043.856.856,0,0,1,.256.117l-.065.15a.913.913,0,0,0-.492-.148.587.587,0,0,0-.355.091.282.282,0,0,0-.119.236.232.232,0,0,0,.065.173.451.451,0,0,0,.163.1c.067.022.154.048.265.074a2.879,2.879,0,0,1,.319.1.509.509,0,0,1,.206.145.371.371,0,0,1,.085.26.442.442,0,0,1-.072.247.5.5,0,0,1-.225.186.928.928,0,0,1-.371.067A1.157,1.157,0,0,1,126.574,82.367Z" transform="translate(-102.849 -65.637)" fill="#fff"/>
        </g>
      </g>
    </g>
  </g>
</svg>
