<svg id="Layer_2" data-name="Layer 2" xmlns="http://www.w3.org/2000/svg" xmlns:xlink="http://www.w3.org/1999/xlink" width="24.053" height="16.305" viewBox="0 0 24.053 16.305">
  <defs>
    <clipPath id="clip-path">
      <path id="Path_42" data-name="Path 42" d="M18.61,3.422l-.394.4a5.239,5.239,0,0,1,.578,1.441,3.62,3.62,0,0,1,.155,1.163,3.384,3.384,0,0,1-.067.735,1,1,0,0,0-1.189-.216c.014-.151.034-.375.032-.519A4,4,0,1,0,16.465,9.4a4.153,4.153,0,0,0,.292-.321l.018,1.6c-.065.043-.151.108-.231.162a5.183,5.183,0,0,1-1.63.692l-.045,1.081v.067a.261.261,0,0,1-.259.245H12.834a.265.265,0,0,1-.261-.245l-.047-1.138a5.162,5.162,0,0,1-1.594-.668l-.738.648-.108.094a.259.259,0,0,1-.36-.022L8.506,10.32a.261.261,0,0,1,0-.36l.758-.785a5.136,5.136,0,0,1-.616-1.5L7.523,7.631A.263.263,0,0,1,7.28,7.37V5.6a.261.261,0,0,1,.243-.261L8.64,5.289a5.19,5.19,0,0,1,.593-1.477l-.782-.85a.259.259,0,0,1,.013-.36l1.248-1.25a.261.261,0,0,1,.36-.013l.814.749a5.165,5.165,0,0,1,1.644-.7L12.577.24A.263.263,0,0,1,12.834,0H14.6a.259.259,0,0,1,.259.243L14.895,1l.016.391a5.223,5.223,0,0,1,1.657.71l.584-.513.281-.247a.263.263,0,0,1,.36.022L19.012,2.64a.261.261,0,0,1,0,.36Z" transform="translate(-7.28 0)" fill="none"/>
    </clipPath>
    <clipPath id="clip-path-2">
      <path id="Path_44" data-name="Path 44" d="M27.2,34.56H25.883a.1.1,0,0,0-.1.1v1.981A3.69,3.69,0,0,0,27.3,37.991V34.664a.1.1,0,0,0-.1-.1Z" transform="translate(-25.78 -34.56)" fill="none"/>
    </clipPath>
    <clipPath id="clip-path-3">
      <path id="Path_46" data-name="Path 46" d="M40.219,29.27H38.9a.1.1,0,0,0-.1.1v4.56a3.7,3.7,0,0,0,1.524,0v-4.56A.1.1,0,0,0,40.219,29.27Z" transform="translate(-38.8 -29.27)" fill="none"/>
    </clipPath>
    <clipPath id="clip-path-4">
      <path id="Path_48" data-name="Path 48" d="M53.344,27.991V24.11a.1.1,0,0,0-.1-.11H51.924a.1.1,0,0,0-.1.1v5.223A3.7,3.7,0,0,0,53.344,27.991Z" transform="translate(-51.82 -24)" fill="none"/>
    </clipPath>
  </defs>
  <g id="Layer_1" data-name="Layer 1" transform="translate(0 0)">
    <g id="RGB_Digital_Version_logo" data-name="RGB Digital Version logo">
      <g id="Logo_1" data-name="Logo 1">
        <g id="IMS">
          <g id="Icon">
            <path id="Path_37" data-name="Path 37" d="M18.61,3.422l-.394.4a5.239,5.239,0,0,1,.578,1.441,3.62,3.62,0,0,1,.155,1.163,3.384,3.384,0,0,1-.067.735,1,1,0,0,0-1.189-.216c.014-.151.034-.375.032-.519A4,4,0,1,0,16.465,9.4a4.153,4.153,0,0,0,.292-.321l.018,1.6c-.065.043-.151.108-.231.162a5.183,5.183,0,0,1-1.63.692l-.045,1.081v.067a.261.261,0,0,1-.259.245H12.834a.265.265,0,0,1-.261-.245l-.047-1.138a5.162,5.162,0,0,1-1.594-.668l-.738.648-.108.094a.259.259,0,0,1-.36-.022L8.506,10.32a.261.261,0,0,1,0-.36l.758-.785a5.136,5.136,0,0,1-.616-1.5L7.523,7.631A.263.263,0,0,1,7.28,7.37V5.6a.261.261,0,0,1,.243-.261L8.64,5.289a5.19,5.19,0,0,1,.593-1.477l-.782-.85a.259.259,0,0,1,.013-.36l1.248-1.25a.261.261,0,0,1,.36-.013l.814.749a5.165,5.165,0,0,1,1.644-.7L12.577.24A.263.263,0,0,1,12.834,0H14.6a.259.259,0,0,1,.259.243L14.895,1l.016.391a5.223,5.223,0,0,1,1.657.71l.584-.513.281-.247a.263.263,0,0,1,.36.022L19.012,2.64a.261.261,0,0,1,0,.36Z" transform="translate(-5.969 0)" fill="#4284f3"/>
            <path id="Path_38" data-name="Path 38" d="M27.2,34.56H25.883a.1.1,0,0,0-.1.1v1.981A3.69,3.69,0,0,0,27.3,37.991V34.664a.1.1,0,0,0-.1-.1Z" transform="translate(-21.137 -28.336)" fill="#e94335"/>
            <path id="Path_39" data-name="Path 39" d="M40.219,29.27H38.9a.1.1,0,0,0-.1.1v4.56a3.7,3.7,0,0,0,1.524,0v-4.56A.1.1,0,0,0,40.219,29.27Z" transform="translate(-31.812 -23.999)" fill="#4284f3"/>
            <path id="Path_40" data-name="Path 40" d="M53.344,27.991V24.11a.1.1,0,0,0-.1-.11H51.924a.1.1,0,0,0-.1.1v5.223A3.7,3.7,0,0,0,53.344,27.991Z" transform="translate(-42.487 -19.678)" fill="#34a753"/>
            <g id="Group_9" data-name="Group 9" transform="translate(1.311)" clip-path="url(#clip-path)">
              <path id="Path_41" data-name="Path 41" d="M1.79,19.273c5.812,1.441,10.878-.328,14.175-5.313h0C13.262,21.011,5.45,21.011,1.79,19.273Z" transform="translate(-2.779 -11.446)" fill="#3572c8"/>
            </g>
            <g id="Group_10" data-name="Group 10" transform="translate(4.643 6.224)" clip-path="url(#clip-path-2)">
              <path id="Path_43" data-name="Path 43" d="M1.79,19.273c5.812,1.441,10.878-.328,14.175-5.313h0C13.262,21.011,5.45,21.011,1.79,19.273Z" transform="translate(-6.111 -17.67)" fill="#be312b"/>
            </g>
            <g id="Group_11" data-name="Group 11" transform="translate(6.988 5.271)" clip-path="url(#clip-path-3)">
              <path id="Path_45" data-name="Path 45" d="M1.79,19.273c5.812,1.441,10.878-.328,14.175-5.313h0C13.262,21.011,5.45,21.011,1.79,19.273Z" transform="translate(-8.455 -16.717)" fill="#3572c8"/>
            </g>
            <g id="Group_12" data-name="Group 12" transform="translate(9.333 4.322)" clip-path="url(#clip-path-4)">
              <path id="Path_47" data-name="Path 47" d="M1.79,19.273c5.812,1.441,10.878-.328,14.175-5.313h0C13.262,21.011,5.45,21.011,1.79,19.273Z" transform="translate(-10.8 -15.768)" fill="#29863f"/>
            </g>
            <path id="Path_49" data-name="Path 49" d="M0,12.229c6,1.037,10.928-.337,14.228-5.322l-.693-.1L15.128,5.52l-.16,2.068-.475-.54C10.651,14.393,3.541,13.542,0,12.229Z" transform="translate(0 -4.526)" fill="#fabb05"/>
          </g>
          <path id="Path_50" data-name="Path 50" d="M64.147,42.613a.582.582,0,0,1,0-.855.681.681,0,0,1,.483-.18.7.7,0,0,1,.483.166.54.54,0,0,1,.18.414.584.584,0,0,1-.18.445.668.668,0,0,1-.483.18A.681.681,0,0,1,64.147,42.613Zm-.056.69h1.081v3.714H64.091Z" transform="translate(-52.44 -34.089)" fill="#222"/>
          <path id="Path_51" data-name="Path 51" d="M81.036,49.823v-2.9l-1.428,2.386h-.5l-1.414-2.33v2.842H76.64V45h.926l1.8,3,1.787-3h.917l.014,4.83Z" transform="translate(-62.837 -36.896)" fill="#222"/>
          <path id="Path_52" data-name="Path 52" d="M111.979,49.333a2.577,2.577,0,0,1-.859-.4l.38-.841a2.6,2.6,0,0,0,.738.36,2.777,2.777,0,0,0,.855.139,1.374,1.374,0,0,0,.7-.142.427.427,0,0,0,.227-.376.36.36,0,0,0-.133-.286,1.012,1.012,0,0,0-.346-.18c-.14-.047-.33-.1-.569-.153a7.907,7.907,0,0,1-.9-.261,1.482,1.482,0,0,1-.6-.421,1.136,1.136,0,0,1-.252-.773,1.344,1.344,0,0,1,.227-.762,1.534,1.534,0,0,1,.688-.54,2.8,2.8,0,0,1,1.124-.2,3.7,3.7,0,0,1,.9.11,2.684,2.684,0,0,1,.773.317l-.344.85a2.689,2.689,0,0,0-1.34-.38,1.261,1.261,0,0,0-.693.151.461.461,0,0,0-.223.4.391.391,0,0,0,.259.369,4.018,4.018,0,0,0,.789.24,7.907,7.907,0,0,1,.9.261,1.5,1.5,0,0,1,.6.414,1.1,1.1,0,0,1,.252.765,1.327,1.327,0,0,1-.231.756,1.576,1.576,0,0,1-.693.54,2.835,2.835,0,0,1-1.133.2,3.919,3.919,0,0,1-1.1-.157Z" transform="translate(-91.108 -36.48)" fill="#222"/>
          <path id="Path_53" data-name="Path 53" d="M7.606,82.347a.679.679,0,0,1-.276-.164l.072-.142a.7.7,0,0,0,.252.153.9.9,0,0,0,.322.059.587.587,0,0,0,.351-.086.267.267,0,0,0,.117-.223.225.225,0,0,0-.063-.166.423.423,0,0,0-.155-.1,2.493,2.493,0,0,0-.258-.079,3,3,0,0,1-.313-.1.519.519,0,0,1-.205-.135.375.375,0,0,1-.083-.258.447.447,0,0,1,.083-.232.486.486,0,0,1,.214-.18.879.879,0,0,1,.36-.065,1.068,1.068,0,0,1,.292.041.83.83,0,0,1,.249.113l-.063.146a.886.886,0,0,0-.477-.144.569.569,0,0,0-.355.088.274.274,0,0,0-.115.229.225.225,0,0,0,.063.167.438.438,0,0,0,.158.1c.065.022.149.047.258.072a2.8,2.8,0,0,1,.31.094.493.493,0,0,1,.2.14.36.36,0,0,1,.083.252.429.429,0,0,1-.07.24.483.483,0,0,1-.218.18.9.9,0,0,1-.36.065A1.122,1.122,0,0,1,7.606,82.347Z" transform="translate(-6.01 -66.115)" fill="#222"/>
          <path id="Path_54" data-name="Path 54" d="M26.437,81.86v.6h-.18v-.6l-.7-1.14h.2l.6.978.6-.978h.18Z" transform="translate(-20.957 -66.183)" fill="#222"/>
          <path id="Path_55" data-name="Path 55" d="M45.594,82.347a.659.659,0,0,1-.274-.164l.072-.142a.7.7,0,0,0,.25.153.9.9,0,0,0,.324.059.584.584,0,0,0,.349-.086.263.263,0,0,0,.117-.223.218.218,0,0,0-.063-.166.409.409,0,0,0-.155-.1,2.365,2.365,0,0,0-.258-.079,3.143,3.143,0,0,1-.313-.1.519.519,0,0,1-.2-.135.375.375,0,0,1-.083-.258.434.434,0,0,1,.072-.232.47.47,0,0,1,.213-.18.879.879,0,0,1,.36-.065,1.07,1.07,0,0,1,.294.041.819.819,0,0,1,.247.113l-.061.146a.951.951,0,0,0-.234-.108A.9.9,0,0,0,46,80.795a.573.573,0,0,0-.346.088.274.274,0,0,0-.115.229.232.232,0,0,0,.063.167.452.452,0,0,0,.158.1c.065.022.151.047.258.072a2.681,2.681,0,0,1,.31.094.511.511,0,0,1,.2.14.36.36,0,0,1,.081.252.429.429,0,0,1-.07.24.483.483,0,0,1-.218.18.888.888,0,0,1-.36.065A1.126,1.126,0,0,1,45.594,82.347Z" transform="translate(-37.158 -66.115)" fill="#222"/>
          <path id="Path_56" data-name="Path 56" d="M64.212,80.88H63.6v-.16h1.408v.16H64.4v1.581h-.184Z" transform="translate(-52.146 -66.183)" fill="#222"/>
          <path id="Path_57" data-name="Path 57" d="M84.89,82.3v.158H83.66V80.72h1.194v.16h-1.01v.62h.9v.157h-.9V82.3Z" transform="translate(-68.593 -66.183)" fill="#222"/>
          <path id="Path_58" data-name="Path 58" d="M105.235,80.72v1.742h-.18V81.069l-.684,1.171h-.086l-.684-1.163v1.385h-.18V80.72h.151l.756,1.291.749-1.291Z" transform="translate(-84.794 -66.183)" fill="#222"/>
          <path id="Path_59" data-name="Path 59" d="M126.566,82.314a.679.679,0,0,1-.276-.164l.072-.142a.7.7,0,0,0,.252.153.9.9,0,0,0,.322.059.587.587,0,0,0,.36-.086.267.267,0,0,0,.117-.223.225.225,0,0,0-.063-.166.423.423,0,0,0-.155-.1,2.5,2.5,0,0,0-.258-.074,3,3,0,0,1-.313-.1.519.519,0,0,1-.2-.14.375.375,0,0,1-.083-.258.447.447,0,0,1,.068-.24.486.486,0,0,1,.214-.18.879.879,0,0,1,.36-.065,1.068,1.068,0,0,1,.292.041.83.83,0,0,1,.249.113l-.063.146a.886.886,0,0,0-.477-.144.569.569,0,0,0-.344.088.274.274,0,0,0-.115.229.225.225,0,0,0,.063.167.438.438,0,0,0,.158.1c.065.022.149.047.258.072a2.793,2.793,0,0,1,.31.094.493.493,0,0,1,.2.14.36.36,0,0,1,.083.252.429.429,0,0,1-.07.24.483.483,0,0,1-.218.18.9.9,0,0,1-.36.065,1.122,1.122,0,0,1-.384-.065Z" transform="translate(-103.546 -66.082)" fill="#222"/>
        </g>
      </g>
    </g>
  </g>
</svg>
